<svg width="42" height="42" viewBox="0 0 42 42" fill="none" xmlns="http://www.w3.org/2000/svg">
<g clip-path="url(#clip0)">
<path d="M38.6681 5.95367C36.494 3.5956 33.5107 2.29688 30.2673 2.29688C27.8429 2.29688 25.6226 3.06335 23.6679 4.57484C22.6816 5.3378 21.7879 6.27122 21 7.3607C20.2124 6.27155 19.3184 5.3378 18.3317 4.57484C16.3774 3.06335 14.1571 2.29688 11.7327 2.29688C8.48927 2.29688 5.50571 3.5956 3.33156 5.95367C1.18336 8.28419 0 11.468 0 14.9191C0 18.4711 1.32372 21.7226 4.16565 25.1519C6.70798 28.2194 10.3619 31.3334 14.5932 34.9392C16.0381 36.1707 17.6758 37.5665 19.3764 39.0533C19.8256 39.4468 20.4021 39.6634 21 39.6634C21.5976 39.6634 22.1744 39.4468 22.623 39.0539C24.3235 37.5668 25.9622 36.1703 27.4077 34.9383C31.6384 31.3331 35.2923 28.2194 37.8347 25.1516C40.6766 21.7226 42 18.4711 42 14.9188C42 11.468 40.8166 8.28419 38.6681 5.95367Z" fill="white"/>
</g>
<defs>
<clipPath id="clip0">
<rect width="42" height="42" fill="white"/>
</clipPath>
</defs>
</svg>
